<?xml version="1.0" encoding="UTF-8"?>
<!DOCTYPE svg PUBLIC "-//W3C//DTD SVG 1.1//EN" "http://www.w3.org/Graphics/SVG/1.1/DTD/svg11.dtd">
<!-- Creator: CorelDRAW 2019 (64-Bit) -->
<svg xmlns="http://www.w3.org/2000/svg" xml:space="preserve" width="158.367mm" height="42.7823mm" version="1.1" style="shape-rendering:geometricPrecision; text-rendering:geometricPrecision; image-rendering:optimizeQuality; fill-rule:evenodd; clip-rule:evenodd"
viewBox="0 0 15836.74 4278.23"
 xmlns:xlink="http://www.w3.org/1999/xlink"
 xmlns:xodm="http://www.corel.com/coreldraw/odm/2003">
 <defs>
  <style type="text/css">
   <![CDATA[
    .str2 {stroke:#2B2A29;stroke-width:100;stroke-miterlimit:22.9256}
    .str3 {stroke:#2B2A29;stroke-width:20;stroke-miterlimit:22.9256}
    .str1 {stroke:#5B5B5B;stroke-width:7.62;stroke-miterlimit:22.9256}
    .str0 {stroke:#F28B00;stroke-width:7.62;stroke-miterlimit:22.9256}
    .fil6 {fill:#2B2A29}
    .fil2 {fill:#46AC9E}
    .fil3 {fill:#EB5B5B}
    .fil4 {fill:#EE7676}
    .fil5 {fill:#F5AFAF}
    .fil1 {fill:#2B2A29;fill-rule:nonzero}
    .fil0 {fill:#F28B00;fill-rule:nonzero}
   ]]>
  </style>
 </defs>
 <g id="Layer_x0020_1">
  <metadata id="CorelCorpID_0Corel-Layer"/>
  <path class="fil0 str0" d="M335.42 1993.47l190.5 0c504.47,0 931.33,-215.19 931.33,-776.1 0,-486.84 -254,-769.06 -1072.44,-769.06l-381 0 0 2659.94 331.61 0 0 -1114.78zm0 -1248.83l88.19 0c328.09,0 723.2,49.39 723.2,465.67 0,423.33 -366.89,486.83 -705.56,486.83l-105.83 0 0 -952.5zm2113.14 663.22c-493.89,0 -881.94,381 -881.94,878.42 0,497.42 388.05,878.41 881.94,878.41 493.89,0 881.94,-380.99 881.94,-878.41 0,-497.42 -388.05,-878.42 -881.94,-878.42zm0 303.39c313.97,0 564.44,261.06 564.44,575.03 0,310.44 -250.47,575.03 -564.44,575.03 -313.97,0 -564.45,-264.59 -564.45,-575.03 0,-313.97 250.48,-575.03 564.45,-575.03zm2091.97 -14.11c-88.19,-179.91 -250.47,-289.28 -451.55,-289.28 -268.12,0 -486.84,211.67 -486.84,479.78 0,225.78 134.06,317.5 317.5,416.28l310.45 165.8c74.08,49.39 116.41,91.73 116.41,179.92 0,141.11 -116.41,232.83 -250.47,232.83 -151.69,0 -232.83,-88.19 -299.86,-211.66l-271.64 123.47c88.2,232.83 331.61,370.41 571.5,370.41 306.92,0 567.97,-232.83 567.97,-546.8 0,-261.06 -186.97,-381 -381,-469.19 -194.02,-88.2 -384.52,-151.7 -384.52,-296.34 0,-91.72 84.66,-162.27 172.86,-162.27 91.72,0 172.86,63.5 211.66,144.64l257.53 -137.59zm797.27 56.45l310.45 0 0 -296.34 -310.45 0 0 -631.47 -317.5 0 0 631.47 -172.86 0 0 296.34 172.86 0 0 1354.66 317.5 0 0 -1354.66zm790.22 -296.34l-317.5 0 0 1651 317.5 0 0 -811.39c0,-257.52 28.22,-606.77 366.89,-606.77 292.8,0 303.38,328.08 303.38,543.27l0 874.89 317.5 0 0 -811.39c0,-254 24.7,-606.77 363.36,-606.77 278.7,0 306.92,271.63 306.92,483.3l0 934.86 317.5 0 0 -987.78c0,-373.94 -112.89,-712.61 -546.81,-712.61 -208.13,0 -405.69,116.42 -507.99,292.81 -105.84,-183.44 -261.06,-292.81 -476.25,-292.81 -179.92,0 -345.72,112.89 -437.45,257.53l-7.05 0 0 -208.14zm2889.24 1368.78l-649.11 1227.66 359.83 0 1337.03 -2596.44 -356.31 0 -518.58 1047.75 -557.39 -1047.75 -370.41 0 754.94 1368.78zm5990.16 -2779.88c-70.55,-28.23 -144.63,-42.34 -222.25,-42.34 -409.22,0 -532.69,289.28 -532.69,649.11l0 804.33 -144.64 0 0 296.34 144.64 0 0 1354.66 317.5 0 0 -1354.66 437.44 0 0 -296.34 -437.44 0 0 -709.08c0,-162.28 0,-448.02 225.78,-448.02 67.03,0 148.16,38.8 211.66,67.02l0 -321.02zm515.06 1707.44l310.45 0 0 -296.34 -310.45 0 0 -631.47 -317.5 0 0 631.47 -172.86 0 0 296.34 172.86 0 0 1354.66 317.5 0 0 -1354.66z"/>
  <path class="fil1 str1" d="M13680.99 1457.25l-317.5 0 0 1651 317.5 0 0 -1651zm-158.75 -977.19c-119.95,0 -218.72,98.78 -218.72,222.25 0,119.95 98.77,215.19 218.72,215.19 119.94,0 218.72,-95.24 218.72,-215.19 0,-123.47 -98.78,-222.25 -218.72,-222.25z"/>
  <path class="fil2" d="M11012.57 1204.22c32.68,-44.6 168.87,-23.67 215.93,-17.14 37.98,5.26 57.82,14.42 90.52,17.14l0 16.57c-60.62,5.05 -260.71,45.87 -306.45,-16.57zm-41.41 -223.62c-212.7,0 -273.72,397.56 41.41,397.56 60.4,0 132.52,-16.39 185.67,-29.67 113.15,-28.27 174.08,-89.15 274.82,-155.88 43.33,-28.71 96.03,-58.47 129.95,-93.68 52.14,-54.12 314.93,-417.64 98.59,-484.34 -145.96,-45.01 -423.99,-10.39 -423.99,258.33 0,54.65 23.32,140.73 44.03,187.88 10.45,23.81 12.15,38.86 30.51,52.32l-6.9 9.66c-2.77,0.01 -5.31,-6.48 -6.03,-5.01 -1.01,2.07 -5.27,-4.2 -9.63,-6.94l-65.68 -33.71c-75.39,-36.15 -207.88,-96.52 -292.75,-96.52zm480.38 149.08c0,-55.82 -8.39,-291.27 74.54,-298.17 26.09,46.43 -21.88,279.11 -74.54,298.17z"/>
  <path class="fil3" d="M12196.97 1519.5l356.06 1.54 0.45 -43.49 -169.28 -245.21c-40.07,-60.34 -265.95,-393.97 -286.62,-409.11 -20.21,13.53 -37.98,25.12 -59.72,39.68l-188.76 134.25c9.35,35 317.86,475.64 347.87,522.34z"/>
  <path class="fil4" d="M11469.86 1253.92c17.55,39.02 61.56,99.41 85.94,136.04 31.31,47.04 58.97,78.09 88.71,130.36l378.53 0.39c-20.97,-35.59 -48.16,-76.85 -73.29,-110.69 -27.19,-36.61 -48.41,-69.44 -74.15,-108.06 -50.83,-76.24 -100.46,-146.89 -150.73,-221.97l-129.2 86.14c-45.54,30.35 -85.23,56.29 -125.81,87.79z"/>
  <path class="fil5" d="M11269.33 1519.41l375.18 0.91c-29.74,-52.27 -57.4,-83.32 -88.71,-130.36 -24.38,-36.63 -68.39,-97.02 -85.94,-136.04 -45.67,26.89 -85.16,55.35 -129.49,87.61 -43.43,31.62 -86.33,57.74 -129.02,86.32 17.63,33.33 37.97,60.64 57.98,91.56z"/>
  <path class="fil6 str2" d="M11760.69 2795.97c-28.05,4.9 -199.23,3.13 -285.42,2.52l-565 4.99 -2.08 -5.91c-0.59,-0.61 -0.77,-1.5 -0.98,-2.78l-1.77 -5.02 -5.35 -8.14 -2.57 -10.24 -4.17 -8.91 -126.23 -365.23 -7.77 -22.04c-4.46,-4.04 -2.67,7.26 -6.78,-11.94 0.63,-0.3 1.4,-0.59 2.26,-0.87l-77.23 -219.16c-0.36,-0.29 -0.66,-0.6 -0.89,-0.92 -0.77,-1.11 -2.44,-2.78 -4.78,-7.48 -2.61,-5.23 -2.05,-5.59 -3.49,-10l-143.07 -413.58 872.52 0 0.23 -0.22 185.8 0.22 920.27 0 -0.15 0.97 0.4 0 -65.95 427.73 -0.21 0.31 -34.21 222.77c1.13,0.18 1.9,0.37 2.25,0.56l-3.93 10.36 -64.05 416.91c-5.71,7.81 8.86,5.17 -10.42,7.51l-381.23 -2.16c-0.11,-0.5 -0.23,-1.15 -0.34,-1.89l-185.66 1.64zm776.65 -1302.05c-226.7,7.72 -463.25,0.36 -691.05,0.36l-1382.37 0c-59.55,0 -111.06,-8.63 -144.73,33.62 -38.93,48.87 -25.3,95.12 -5.49,152.79 34.17,99.5 67.68,188.69 101.95,288.09l304.62 864.51c62.13,173.57 48.34,178.67 195.86,178.67 461.48,0 924.17,-3.94 1385.5,0.09 2.61,33.65 -54.54,379.81 -64.66,433.42 -378.08,5.48 -776.9,0.23 -1159.07,0.17 -66.6,-0.02 -96.79,0.07 -125.77,50.09 -29.43,50.82 -12.11,113.87 17.66,141.77 37.18,34.83 89.97,24.87 144.87,24.87l1165.47 0.01c60.81,0.09 93.93,-7.85 115.81,-59.37 14.62,-34.44 144.52,-913.73 157.22,-996l153.34 -994.78c16.02,-109.27 31.64,-226.02 51.93,-334.1 73.24,-3.83 838.01,12.27 878.28,-11.04 46.06,-26.66 75.41,-104.33 32.51,-165.29 -40.14,-57.01 -104.56,-41.4 -181.88,-41.4 -71.08,0 -599.36,0 -670.44,0 -63.42,0 -152.65,-14.93 -195.45,25.47 -49.73,46.95 -54.04,298.02 -84.11,408.05z"/>
  <path class="fil6 str3" d="M12226.72 4076.15c19.56,-130.65 -79.67,-233.88 -189.99,-248.66 -129.69,-17.37 -233,78.18 -248.24,187.17 -18.76,134.29 78.03,236.62 190.22,251.56 131.66,17.53 231.38,-78.95 248.01,-190.07z"/>
  <path class="fil6 str3" d="M11658.7 4076.15c19.56,-130.65 -79.67,-233.88 -189.99,-248.66 -129.69,-17.37 -233,78.18 -248.24,187.17 -18.76,134.29 78.03,236.62 190.22,251.56 131.66,17.53 231.38,-78.95 248.01,-190.07z"/>
 </g>
</svg>
